<?xml version="1.0" standalone="no"?>
<!DOCTYPE svg PUBLIC "-//W3C//DTD SVG 20010904//EN"
 "http://www.w3.org/TR/2001/REC-SVG-20010904/DTD/svg10.dtd">
<svg version="1.0" xmlns="http://www.w3.org/2000/svg"
 width="400.000000pt" height="400.000000pt" viewBox="0 0 400.000000 400.000000"
 preserveAspectRatio="xMidYMid meet">
<metadata>
Created by potrace 1.14, written by Peter Selinger 2001-2017
</metadata>
<g transform="translate(0.000000,400.000000) scale(0.100000,-0.100000)"
fill="#000000" stroke="none">
<path d="M2255 3341 c-28 -13 -147 -129 -395 -386 -195 -202 -366 -385 -379
-406 -28 -47 -31 -120 -8 -166 9 -17 84 -96 167 -176 l152 -145 73 77 74 76
-120 120 c-65 66 -119 125 -119 132 0 6 138 153 306 327 221 228 312 316 325
314 20 -3 600 -555 627 -596 13 -20 12 -25 -9 -52 -62 -77 -577 -599 -597
-605 -18 -6 -35 3 -83 45 -33 29 -64 49 -68 44 -4 -5 -36 -40 -71 -77 l-64
-68 80 -80 c112 -113 182 -141 267 -105 37 15 752 749 779 799 10 19 17 55 18
89 0 49 -4 62 -32 98 -59 74 -749 731 -784 746 -45 19 -91 17 -139 -5z"/>
<path d="M1623 3339 c-18 -3 -44 -14 -57 -23 -42 -27 -750 -764 -763 -794 -17
-38 -16 -117 2 -151 18 -36 745 -740 788 -763 43 -24 123 -23 163 1 43 26 756
765 771 799 17 37 16 117 -1 150 -8 15 -83 94 -166 176 l-153 150 -72 -79 -72
-80 119 -114 c82 -78 118 -120 116 -133 -4 -24 -605 -648 -625 -648 -8 0 -89
72 -181 159 -403 386 -464 447 -461 464 5 24 608 647 626 647 8 0 41 -25 72
-55 l58 -55 73 76 72 76 -73 75 c-41 41 -86 83 -100 93 -34 25 -96 38 -136 29z"/>
<path d="M1550 890 l0 -320 205 0 205 0 0 30 0 30 -160 0 -161 0 3 118 3 117
138 3 137 3 0 29 0 30 -140 0 -141 0 3 108 3 107 153 3 152 3 0 29 0 30 -200
0 -200 0 0 -320z"/>
<path d="M2110 890 l0 -320 45 0 45 0 0 145 0 145 130 0 130 0 0 35 0 35 -130
0 -131 0 3 108 3 107 138 3 137 3 0 29 0 30 -185 0 -185 0 0 -320z"/>
</g>
</svg>
